<?xml version="1.0" encoding="UTF-8" standalone="no"?>
<!-- Created with Inkscape (http://www.inkscape.org/) -->

<svg
   xmlns:dc="http://purl.org/dc/elements/1.1/"
   xmlns:cc="http://creativecommons.org/ns#"
   xmlns:rdf="http://www.w3.org/1999/02/22-rdf-syntax-ns#"
   xmlns:svg="http://www.w3.org/2000/svg"
   xmlns="http://www.w3.org/2000/svg"
   xmlns:sodipodi="http://sodipodi.sourceforge.net/DTD/sodipodi-0.dtd"
   xmlns:inkscape="http://www.inkscape.org/namespaces/inkscape"
   width="128"
   height="128"
   id="svg2"
   version="1.1"
   inkscape:version="0.48.3.1 r9886"
   sodipodi:docname="logo.svg"
   inkscape:export-filename="/home/ondrej/Projekte/Private_Arbeiten/ffos/checklists/images/logo16.png"
   inkscape:export-xdpi="11.25"
   inkscape:export-ydpi="11.25">
  <defs
     id="defs4">
    <clipPath
       clipPathUnits="userSpaceOnUse"
       id="clipPath3771">
      <path
         transform="translate(0,924.36218)"
         d="M 128,64 A 64,64 0 1 1 0,64 64,64 0 1 1 128,64 z"
         sodipodi:ry="64"
         sodipodi:rx="64"
         sodipodi:cy="64"
         sodipodi:cx="64"
         id="path3773"
         style="color:#000000;fill:#ff7f2a;fill-opacity:1;fill-rule:nonzero;stroke:none;stroke-width:1;marker:none;visibility:visible;display:inline;overflow:visible;enable-background:accumulate"
         sodipodi:type="arc" />
    </clipPath>
  </defs>
  <sodipodi:namedview
     id="base"
     pagecolor="#ffffff"
     bordercolor="#666666"
     borderopacity="1.0"
     inkscape:pageopacity="0.0"
     inkscape:pageshadow="2"
     inkscape:zoom="2.7172051"
     inkscape:cx="66.323879"
     inkscape:cy="47.74936"
     inkscape:document-units="px"
     inkscape:current-layer="layer1"
     showgrid="true"
     inkscape:snap-page="true"
     inkscape:snap-grids="false"
     inkscape:window-width="1366"
     inkscape:window-height="709"
     inkscape:window-x="0"
     inkscape:window-y="27"
     inkscape:window-maximized="1">
    <inkscape:grid
       type="xygrid"
       id="grid2985"
       empspacing="5"
       visible="true"
       enabled="true"
       snapvisiblegridlinesonly="true" />
  </sodipodi:namedview>
  <metadata
     id="metadata7">
    <rdf:RDF>
      <cc:Work
         rdf:about="">
        <dc:format>image/svg+xml</dc:format>
        <dc:type
           rdf:resource="http://purl.org/dc/dcmitype/StillImage" />
        <dc:title></dc:title>
      </cc:Work>
    </rdf:RDF>
  </metadata>
  <g
     inkscape:label="Ebene 1"
     inkscape:groupmode="layer"
     id="layer1"
     transform="translate(0,-924.36218)">
    <path
       sodipodi:type="arc"
       style="color:#000000;fill:#ff7f2a;fill-opacity:1;fill-rule:nonzero;stroke:none;stroke-width:1;marker:none;visibility:visible;display:inline;overflow:visible;enable-background:accumulate"
       id="path2989"
       sodipodi:cx="64"
       sodipodi:cy="64"
       sodipodi:rx="64"
       sodipodi:ry="64"
       d="M 128,64 A 64,64 0 1 1 0,64 64,64 0 1 1 128,64 z"
       transform="translate(0,924.36218)" />
    <path
       style="color:#000000;fill:#ffffff;fill-opacity:1;fill-rule:nonzero;stroke:#ff7f2a;stroke-width:4;stroke-linecap:butt;stroke-linejoin:round;stroke-miterlimit:4;stroke-opacity:1;stroke-dasharray:none;marker:none;visibility:visible;display:inline;overflow:visible;enable-background:accumulate"
       id="path3777"
       d="m 32.399732,972.45057 c 3.205587,6.80123 7.982009,12.72873 12.514157,18.67473 3.744099,4.7593 7.725428,9.3339 11.976142,13.6481 1.570711,1.5942 4.266106,4.2029 6.10459,5.6678 0.715527,0.57 1.500356,1.0472 2.250535,1.5708 0.566753,0.2294 1.09042,0.6441 1.700256,0.6883 0.37312,0.028 1.337927,-0.6698 1.0083,-0.4929 -5.610265,3.0107 -11.095861,6.2707 -16.850877,8.9942 -0.549336,0.26 0.764383,-0.9583 1.028093,-1.5057 0.416935,-0.8658 0.673534,-1.7999 0.999315,-2.7039 0.444005,-1.2319 0.873324,-2.4692 1.309986,-3.7039 5.066443,-13.7728 13.509967,-25.924 21.816136,-37.89791 6.773875,-9.42857 13.710642,-18.75203 21.026605,-27.7695 2.92232,-3.60196 5.0673,-6.07552 8.02239,-9.53637 0.95136,-1.08367 1.90273,-2.16732 2.8541,-3.251 0,0 15.84054,-6.58583 15.84054,-6.58583 l 0,0 c -1.27505,1.20224 -2.55009,2.4045 -3.82515,3.60676 -3.91567,3.97554 -5.84223,5.83497 -9.64332,10.12809 -7.79496,8.80398 -14.884636,18.22134 -21.589373,27.87222 -7.407624,11.09174 -15.056066,22.48844 -18.157912,35.65394 -0.62605,3.288 -0.633106,2.8555 -0.91266,5.8606 -0.06094,0.6549 0.404328,1.5974 -0.138701,1.9684 -5.983933,4.0914 -13.893732,14.7046 -19.347527,9.9293 -0.453105,-0.3966 -0.816312,-0.8855 -1.224467,-1.3285 -5.953199,-7.5439 -11.336936,-15.5479 -17.885333,-22.6154 -4.491149,-4.8456 -3.79256,-4.2114 -8.306081,-8.6417 -2.384948,-2.3411 -4.809249,-4.7368 -7.462719,-6.7838 -0.271573,-0.2095 -0.571267,-0.3798 -0.856901,-0.5697 0,0 17.749876,-10.87713 17.749876,-10.87713 z"
       inkscape:connector-curvature="0" />
    <path
       inkscape:connector-curvature="0"
       d="m 32.399732,972.45057 c 3.205587,6.80123 7.982009,12.72873 12.514157,18.67473 3.744099,4.7593 7.725428,9.3339 11.976142,13.6481 1.570711,1.5942 4.266106,4.2029 6.10459,5.6678 0.715527,0.57 1.500356,1.0472 2.250535,1.5708 0.566753,0.2294 1.09042,0.6441 1.700256,0.6883 0.37312,0.028 1.337927,-0.6698 1.0083,-0.4929 -5.610265,3.0107 -11.095861,6.2707 -16.850877,8.9942 -0.549336,0.26 0.764383,-0.9583 1.028093,-1.5057 0.416935,-0.8658 0.673534,-1.7999 0.999315,-2.7039 0.444005,-1.2319 0.873324,-2.4692 1.309986,-3.7039 5.066443,-13.7728 13.509967,-25.924 21.816136,-37.89791 6.773875,-9.42857 13.710642,-18.75203 21.026605,-27.7695 2.92232,-3.60196 5.0673,-6.07552 8.02239,-9.53637 0.95136,-1.08367 1.90273,-2.16732 2.8541,-3.251 0,0 15.84054,-6.58583 15.84054,-6.58583 l 0,0 c -1.27505,1.20224 -2.55009,2.4045 -3.82515,3.60676 -3.91567,3.97554 -5.84223,5.83497 -9.64332,10.12809 -7.79496,8.80398 -14.884636,18.22134 -21.589373,27.87222 -7.407624,11.09174 -15.056066,22.48844 -18.157912,35.65394 -0.62605,3.288 -0.633106,2.8555 -0.91266,5.8606 -0.06094,0.6549 0.404328,1.5974 -0.138701,1.9684 -5.983933,4.0914 -13.893732,14.7046 -19.347527,9.9293 -0.453105,-0.3966 -0.816312,-0.8855 -1.224467,-1.3285 -5.953199,-7.5439 -11.336936,-15.5479 -17.885333,-22.6154 -4.491149,-4.8456 -3.79256,-4.2114 -8.306081,-8.6417 -2.384948,-2.3411 -4.809249,-4.7368 -7.462719,-6.7838 -0.271573,-0.2095 -0.571267,-0.3798 -0.856901,-0.5697 0,0 17.749876,-10.87713 17.749876,-10.87713 z"
       id="path3767"
       style="color:#000000;fill:#ffffff;fill-opacity:1;fill-rule:nonzero;stroke:none;stroke-width:0;marker:none;visibility:visible;display:inline;overflow:visible;enable-background:accumulate" />
  </g>
</svg>
